<svg version="1.1" id="Layer_1" xmlns="http://www.w3.org/2000/svg" xmlns:xlink="http://www.w3.org/1999/xlink" x="0px" y="0px" viewBox="0 0 512 512" style="enable-background:new 0 0 512 512;" xml:space="preserve" width="512" height="512"><path style="fill:#978574;" d="M212.884 460.8v34.493c0 4.762 3.861 8.623 8.623 8.623h68.985c4.762 0 8.623 -3.861 8.623 -8.623V460.8H212.884z"/><path style="fill:#B0A18D;" d="M212.884 495.293c0 0.182 0.016 0.36 0.027 0.539h53.868c4.762 0 8.623 -3.861 8.623 -8.623v-6.467h-62.518V495.293z"/><path style="fill:#ECCE93;" d="M256.239 8.084c-0.08 0 -0.16 0.003 -0.239 0.003l-53.895 161.681L256 406.905h32.337c5.953 0 10.779 -4.826 10.779 -10.779c0 -48.146 63.943 -72.096 93.393 -110.185c22.536 -29.146 35.954 -65.7 35.954 -105.392C428.464 85.37 351.418 8.214 256.239 8.084z"/><path style="fill:#AB5034;" d="M256.21 8.084c-0.07 0 -0.14 0.003 -0.21 0.003l-53.895 161.681L256 406.905h28.295c5.209 0 9.432 -4.826 9.432 -10.779c0 -48.146 55.949 -72.096 81.72 -110.185c19.719 -29.146 31.459 -65.7 31.459 -105.392C406.906 85.37 339.49 8.214 256.21 8.084z"/><path style="fill:#ECCE93;" d="M256.12 8.086c-0.04 0 -0.08 0.002 -0.12 0.002l-53.895 161.68L256 406.905h10.779c5.953 0 10.779 -4.826 10.779 -10.779c1.991 -48.146 39.189 -72.096 61.025 -110.185c16.708 -29.146 27.452 -65.701 29.092 -105.394C371.616 85.277 321.666 8.051 256.12 8.086z"/><g><path style="fill:#AB5034;" d="M256.12 8.086c-0.04 0 -0.08 0.003 -0.12 0.003l-53.895 161.679L256 406.905h0.05h1.738c3.451 0 6.249 -4.827 6.249 -10.779c1.154 -48.146 27.228 -72.096 39.885 -110.185c9.686 -29.146 15.913 -65.701 16.865 -105.394C323.071 85.277 294.115 8.051 256.12 8.086z"/><path style="fill:#AB5034;" d="M83.537 180.547c0 39.693 13.418 76.248 35.954 105.394c29.45 38.088 93.393 62.038 93.393 110.185c0 5.953 4.826 10.779 10.779 10.779H256V8.087C160.752 8.087 83.537 85.299 83.537 180.547z"/></g><path style="fill:#ECCE93;" d="M105.095 180.547c0 39.693 11.74 76.248 31.459 105.394c25.77 38.088 81.72 62.038 81.72 110.185c0 5.953 4.222 10.779 9.432 10.779H256V8.087C172.657 8.087 105.095 85.299 105.095 180.547z"/><path style="fill:#AB5034;" d="M144.564 180.547c1.642 39.693 12.384 76.248 29.093 105.394c21.835 38.088 58.794 62.038 60.785 110.185c0 5.953 4.826 10.779 10.779 10.779H256V8.089C190.512 8.148 140.626 85.335 144.564 180.547z"/><path style="fill:#ECCE93;" d="M191.452 180.547c0.952 39.693 7.179 76.248 16.865 105.394c12.658 38.088 38.731 62.038 39.885 110.185c0 5.952 2.797 10.779 6.249 10.779H256V8.09C218.062 8.217 189.171 85.377 191.452 180.547z"/><path style="fill:#BD7155;" d="M83.537 180.547c0 16.997 2.467 33.416 7.051 48.927c26.516 35.716 69.007 58.863 116.907 58.863c17.009 0 33.333 -2.929 48.505 -8.291V8.087C160.752 8.087 83.537 85.299 83.537 180.547z"/><path style="fill:#F8E5B5;" d="M105.095 180.547c0 29.023 6.283 56.364 17.367 80.362c23.92 17.254 53.287 27.427 85.033 27.427c17.009 0 33.333 -2.929 48.505 -8.291V8.087C172.657 8.087 105.095 85.299 105.095 180.547z"/><path style="fill:#BD7155;" d="M144.564 180.547c1.608 38.883 11.965 74.735 28.093 103.581c11.163 2.743 22.829 4.208 34.838 4.208c17.009 0 33.333 -2.929 48.505 -8.291V8.089C190.512 8.148 140.626 85.335 144.564 180.547z"/><path style="fill:#F8E5B5;" d="M228.702 286.793c70.312 -10.268 124.308 -70.81 124.308 -143.972c0 -60.585 -37.028 -112.514 -89.685 -134.411c-2.38 -0.207 -4.78 -0.324 -7.206 -0.323c-0.04 0 -0.08 0.002 -0.12 0.002l-53.895 161.68L228.702 286.793z"/><path style="fill:#BD7155;" d="M256.12 8.086c-0.04 0 -0.08 0.003 -0.12 0.003l-53.895 161.679l26.597 117.025c34 -4.965 64.184 -21.681 86.293 -45.901c3.251 -18.786 5.283 -39.108 5.792 -60.345C323.071 85.277 294.115 8.051 256.12 8.086z"/><path style="fill:#F8E5B5;" d="M191.452 180.547c0.952 39.693 7.179 76.248 16.865 105.394c0.266 0.801 0.547 1.587 0.824 2.375c16.416 -0.182 32.177 -3.081 46.859 -8.271V8.09C218.062 8.217 189.171 85.377 191.452 180.547z"/><path style="opacity:0.3;fill:#8D472E;enable-background:new    ;" d="M322.403 339.755c-9.52 3.975 -19.472 7.116 -29.767 9.343c-6.412 1.387 -12.954 2.424 -19.61 3.076c-5.602 0.549 -11.279 0.836 -17.025 0.836c-4.153 0 -8.27 -0.156 -12.349 -0.445l0 0c-1.481 -0.105 -2.958 -0.227 -4.428 -0.37c-6.709 -0.648 -13.304 -1.684 -19.766 -3.077c-10.327 -2.228 -20.311 -5.377 -29.859 -9.364c-8.964 -3.743 -17.543 -8.221 -25.665 -13.359c25.212 20.041 48.952 40.394 48.952 69.731c0 5.953 4.826 10.779 10.779 10.779h4.042h17.516h9.23H256h0.05h1.738h8.992h17.516h4.042c5.953 0 10.779 -4.826 10.779 -10.779c0 -29.337 23.74 -49.69 48.952 -69.731C339.945 331.532 331.366 336.011 322.403 339.755z"/><path d="M383.764 52.961C349.725 18.874 304.439 0.066 256.25 0c-0.029 0 -0.057 0 -0.085 0c-0.031 0 -0.063 0 -0.093 0c-0.025 0 -0.048 0 -0.073 0c-48.181 0 -93.482 18.745 -127.577 52.794c-34.157 34.111 -52.969 79.481 -52.969 127.753c0 40.335 13.017 78.49 37.643 110.339c11.102 14.359 26.588 26.618 41.564 38.473c25.785 20.414 50.14 39.695 50.14 66.767c0 7.505 4.417 13.982 10.779 17.018v31.487c0 4.465 3.62 8.084 8.084 8.084c4.465 0 8.084 -3.62 8.084 -8.084v-29.642h21.493h5.756h21.256v29.642c0 4.465 3.618 8.084 8.084 8.084s8.084 -3.62 8.084 -8.084v-31.489c6.361 -3.035 10.778 -9.511 10.778 -17.017c0 -27.072 24.356 -46.354 50.142 -66.767c14.976 -11.856 30.461 -24.115 41.565 -38.472l0 0c24.626 -31.85 37.642 -70.004 37.642 -110.339C436.547 132.359 417.802 87.048 383.764 52.961zM386.114 280.996c-9.895 12.798 -24.593 24.433 -38.807 35.686c-27.666 21.902 -56.275 44.549 -56.275 79.444c0 1.485 -1.208 2.695 -2.695 2.695h-10.688c0.117 -0.82 0.203 -1.65 0.211 -2.5c1.213 -27.974 18.85 -47.347 37.522 -67.857c10.811 -11.876 21.99 -24.157 30.214 -38.502c18.081 -31.54 28.509 -69.259 30.157 -109.081c0.185 -4.461 -3.282 -8.226 -7.744 -8.412c-4.42 -0.188 -8.226 3.282 -8.411 7.744c-1.541 37.239 -11.234 72.41 -28.031 101.708c-7.344 12.811 -17.448 23.909 -28.143 35.659c-16.366 17.976 -33.179 36.465 -39.341 61.45v-98.983c0 -4.465 -3.618 -8.084 -8.084 -8.084c-4.465 0 -8.084 3.62 -8.084 8.084v97.999c-6.355 -24.49 -22.952 -42.725 -39.102 -60.466c-10.696 -11.75 -20.799 -22.848 -28.143 -35.659c-2.222 -3.874 -7.163 -5.213 -11.034 -2.993c-3.874 2.22 -5.214 7.162 -2.993 11.034c8.224 14.346 19.403 26.626 30.214 38.501c18.671 20.51 36.309 39.883 37.522 67.858c0.009 0.85 0.094 1.68 0.211 2.5h-10.928c-1.485 0 -2.695 -1.209 -2.695 -2.695c0 -34.895 -28.608 -57.541 -56.274 -79.443c-14.215 -11.253 -28.913 -22.889 -38.809 -35.687c-22.416 -28.991 -34.265 -63.726 -34.265 -100.449c0 -43.949 17.127 -85.257 48.225 -116.312c13.269 -13.252 28.405 -23.947 44.808 -31.86c-6.408 6.661 -12.38 14.287 -17.824 22.85c-2.396 3.767 -1.284 8.764 2.483 11.161c1.345 0.855 2.847 1.263 4.33 1.263c2.673 0 5.289 -1.325 6.83 -3.748c17.739 -27.895 41.44 -44.427 67.443 -47.286v22.01c0 4.465 3.62 8.084 8.084 8.084c4.466 0 8.084 -3.62 8.084 -8.084v-22.03c24.892 2.682 47.862 17.987 65.369 43.785c2.506 3.695 7.537 4.658 11.228 2.15c3.695 -2.507 4.658 -7.534 2.15 -11.228c-4.627 -6.82 -9.614 -12.996 -14.899 -18.524c54.681 26.739 92.447 82.952 92.447 147.772C420.379 217.271 408.531 252.005 386.114 280.996z"/><path d="M207.495 452.716c-4.465 0 -8.084 3.62 -8.084 8.084c0 3.518 2.252 6.503 5.389 7.614v26.878c0 9.213 7.495 16.707 16.707 16.707h68.985c9.213 0 16.707 -7.495 16.707 -16.707v-15.091c0 -4.465 -3.618 -8.084 -8.084 -8.084s-8.084 3.62 -8.084 8.084v15.091c0 0.298 -0.243 0.539 -0.539 0.539h-68.985c-0.298 0 -0.539 -0.241 -0.539 -0.539v-26.408h83.537c4.466 0 8.084 -3.62 8.084 -8.084c0 -4.465 -3.618 -8.084 -8.084 -8.084h-16.167h-64.674H207.495z"/></svg>