<svg version="1.1" id="Capa_1" xmlns="http://www.w3.org/2000/svg" xmlns:xlink="http://www.w3.org/1999/xlink" x="0px" y="0px" viewBox="0 0 20 20" style="enable-background:new 0 0 512 512;" xml:space="preserve" width="20" height="20"><g><g><g><path style="fill:#FFCE8B;" d="M2.041 1.036v17.927c0 0.223 -0.18 0.403 -0.403 0.403H1.147c-0.223 0 -0.403 -0.18 -0.403 -0.403V1.036c0 -0.223 0.18 -0.403 0.403 -0.403h0.493C1.861 0.634 2.041 0.814 2.041 1.036z"/><path x="19.048" y="64.644" style="fill:#FFB54E;" width="33.203" height="133.336" d="M0.744 2.526H2.041V7.734H0.744V2.526z"/></g><g><path style="fill:#FFCE8B;" d="M19.256 1.036v17.927c0 0.223 -0.18 0.403 -0.403 0.403h-0.493c-0.223 0 -0.403 -0.18 -0.403 -0.403V1.036c0 -0.223 0.18 -0.403 0.403 -0.403h0.493C19.076 0.634 19.256 0.814 19.256 1.036z"/><g><g><path x="459.749" y="64.644" style="fill:#FFB54E;" width="33.203" height="133.336" d="M17.959 2.526H19.256V7.734H17.959V2.526z"/></g></g></g></g><g><g><path x="150.846" y="79.064" style="fill:#FFB54E;" width="210.308" height="104.491" d="M5.893 3.089H14.107V7.17H5.893V3.089z"/><path x="335.163" y="79.064" style="fill:#FF9A1B;" width="25.991" height="104.491" d="M13.093 3.089H14.107V7.17H13.093V3.089z"/><path x="150.846" y="79.064" style="fill:#FF9A1B;" width="25.991" height="104.491" d="M5.893 3.089H6.907V7.17H5.893V3.089z"/><g><g><path style="fill:#FFF5F5;" d="M2.283 7.17H0.403C0.18 7.17 0 6.99 0 6.767v-1.88h2.283V7.17z"/><path x="46.065" y="79.064" style="fill:#FFF5F5;" width="64.608" height="58.427" d="M1.8 3.089H4.323V5.371H1.8V3.089z"/><path style="fill:#756F6F;" d="M2.041 5.13H0V3.491c0 -0.223 0.18 -0.403 0.403 -0.403h1.639V5.13z"/><path x="98.31" y="125.129" style="fill:#FFF5F5;" width="58.427" height="58.427" d="M3.84 4.887H6.123V7.17H3.84V4.887z"/><path x="104.491" y="79.064" style="fill:#756F6F;" width="52.246" height="52.246" d="M4.081 3.089H6.123V5.13H4.081V3.089z"/><path x="52.246" y="131.31" style="fill:#756F6F;" width="52.246" height="52.246" d="M2.041 5.13H4.081V7.17H2.041V5.13z"/></g><g><path x="401.327" y="79.064" style="fill:#FFF5F5;" width="64.608" height="58.427" d="M15.677 3.089H18.2V5.371H15.677V3.089z"/><path x="355.263" y="125.129" style="fill:#FFF5F5;" width="58.427" height="58.427" d="M13.877 4.887H16.16V7.17H13.877V4.887z"/><path x="355.263" y="79.064" style="fill:#756F6F;" width="52.246" height="52.246" d="M13.877 3.089H15.919V5.13H13.877V3.089z"/><path style="fill:#FFF5F5;" d="M19.597 7.17h-1.88v-2.283H20v1.88C20 6.99 19.82 7.17 19.597 7.17z"/><path style="fill:#756F6F;" d="M20 5.13h-2.041V3.089h1.639c0.223 0 0.403 0.18 0.403 0.403V5.13z"/><path x="407.509" y="131.31" style="fill:#756F6F;" width="52.246" height="52.246" d="M15.919 5.13H17.959V7.17H15.919V5.13z"/></g></g></g><path style="fill:#FFF5F5;" d="M10.44 5.64h-0.104v-1.323c0 -0.104 -0.054 -0.201 -0.143 -0.257c-0.089 -0.054 -0.2 -0.06 -0.294 -0.013l-0.473 0.237c-0.149 0.074 -0.21 0.256 -0.134 0.404c0.074 0.149 0.256 0.21 0.404 0.134l0.037 -0.019v0.834h-0.104c-0.167 0 -0.301 0.136 -0.301 0.301c0 0.167 0.136 0.301 0.301 0.301h0.813c0.167 0 0.301 -0.136 0.301 -0.301C10.741 5.774 10.607 5.64 10.44 5.64z"/></g></g></svg>