<svg width="22px" height="22px" viewBox="0 0 22 22" id="emoji" version="1.1" xmlns="http://www.w3.org/2000/svg"><g id="color"><path fill="#FCEA2B" d="M4.926 14.7c-0.966 0.967 -1.421 2.31 -1.213 3.572c1.262 0.207 2.605 -0.251 3.571 -1.214c0.966 -0.967 1.421 -2.31 1.213 -3.572C7.235 13.279 5.892 13.737 4.926 14.7z"/><path fill="#61B2E4" d="M9.769 14.006c-0.058 0.295 -0.202 0.565 -0.416 0.78c-0.103 0.102 -0.221 0.19 -0.35 0.261c0.661 0.909 1.147 1.921 1.434 2.98c0.217 -0.189 0.426 -0.392 0.624 -0.602c0.584 -0.623 1.085 -1.324 1.483 -2.088c0.383 -0.739 0.664 -1.526 0.838 -2.333c-1.14 0.597 -2.375 0.939 -3.615 1.003L9.769 14.006z"/><path fill="#92D3F5" d="M4.561 10.923c-0.21 0.199 -0.411 0.407 -0.602 0.624c1.059 0.285 2.072 0.77 2.982 1.43c0.069 -0.125 0.156 -0.242 0.257 -0.344c0.212 -0.211 0.483 -0.356 0.777 -0.416c0.065 -1.239 0.408 -2.472 1.005 -3.61c0 -0.001 0.001 -0.002 0.001 -0.003c-0.807 0.174 -1.595 0.455 -2.334 0.838C5.885 9.838 5.181 10.339 4.561 10.923L4.561 10.923z"/><path fill="#EA5A47" d="M10.639 6.339c-1.598 1.605 -2.556 3.717 -2.665 5.876c0.499 -0.101 1.019 0.055 1.379 0.416c0.362 0.363 0.518 0.883 0.415 1.385c2.163 -0.11 4.276 -1.07 5.881 -2.671c2.05 -2.055 3.021 -4.909 2.576 -7.59c-0.529 -0.087 -1.07 -0.119 -1.617 -0.097c-2.192 0.089 -4.342 1.055 -5.969 2.68L10.639 6.339zM13.772 6.178c0.562 -0.562 1.475 -0.562 2.037 0c0 0 0 0 0 0c0.562 0.562 0.563 1.474 0 2.037c0 0 0 0 0 0c-0.562 0.562 -1.475 0.562 -2.037 0C13.209 7.653 13.209 6.741 13.772 6.178z"/><path fill="#F1B31C" d="M8.109 15.899c-0.267 0.3 -0.576 0.564 -0.92 0.782c-1.067 0.68 -2.361 0.867 -3.496 0.505c-0.045 0.365 -0.04 0.73 0.019 1.085c1.262 0.207 2.605 -0.251 3.571 -1.214c0.338 -0.34 0.617 -0.733 0.826 -1.157L8.109 15.899z"/><path fill="#D22F27" d="M8.007 11.822c-0.01 0.131 -0.018 0.262 -0.021 0.393c0.497 -0.097 1.01 0.059 1.367 0.418c0.362 0.363 0.518 0.883 0.415 1.385c2.163 -0.11 4.276 -1.07 5.878 -2.671c0.455 -0.461 0.865 -0.966 1.214 -1.507c-0.411 0.375 -0.857 0.714 -1.33 1.011c-2.309 1.44 -5.101 1.801 -7.525 0.972L8.007 11.822z"/><path points="36.1664,-14.4511 36.1664,-14.4511 36.1664,-14.4511" d="M11.052 -4.415L11.052 -4.415L11.052 -4.415Z"/><path fill="#61B2E4" d="M7.346 14.836c0.266 -0.133 0.526 -0.279 0.78 -0.439c0.747 -0.469 1.429 -1.041 2.025 -1.697l0.001 -0.001c0.574 -0.639 1.063 -1.351 1.445 -2.112c0.019 -0.036 0.03 -0.077 0.032 -0.119C10.591 10.238 7.093 13.599 7.346 14.836L7.346 14.836z"/></g><g id="hair"/><g id="skin"/><g id="skin-shadow"/><g id="line"><path d="M14.791 9.01c-1.001 0 -1.815 -0.814 -1.815 -1.815s0.814 -1.815 1.815 -1.815c1.001 0 1.815 0.814 1.815 1.815S15.792 9.01 14.791 9.01zM14.791 5.986c-0.668 0 -1.21 0.542 -1.21 1.21c0 0.668 0.542 1.21 1.21 1.21c0.668 0 1.21 -0.542 1.21 -1.21C16.001 6.53 15.457 5.986 14.791 5.986z"/><path fill="none" stroke="#000000" stroke-linecap="round" stroke-linejoin="round" stroke-miterlimit="10" stroke-width="0.5955277777777779" d="M6.311 13.77c-0.513 0.217 -0.986 0.535 -1.385 0.933c-0.966 0.967 -1.421 2.31 -1.213 3.572c1.262 0.207 2.605 -0.251 3.571 -1.214c0.398 -0.4 0.716 -0.872 0.933 -1.385"/><path fill="none" stroke="#000000" stroke-linecap="round" stroke-linejoin="round" stroke-miterlimit="10" stroke-width="0.5955277777777779" d="M4.561 10.923c-0.21 0.199 -0.411 0.407 -0.602 0.624c1.059 0.285 2.072 0.77 2.982 1.43c0.069 -0.125 0.156 -0.242 0.257 -0.344c0.212 -0.211 0.483 -0.356 0.777 -0.416c0.065 -1.239 0.408 -2.472 1.005 -3.61c0 -0.001 0.001 -0.002 0.001 -0.003c-0.807 0.174 -1.595 0.455 -2.334 0.838C5.885 9.838 5.181 10.339 4.561 10.923L4.561 10.923z"/><path fill="none" stroke="#000000" stroke-linecap="round" stroke-linejoin="round" stroke-miterlimit="10" stroke-width="0.5955277777777779" d="M9.769 14.006c-0.058 0.295 -0.202 0.565 -0.416 0.78c-0.103 0.102 -0.221 0.19 -0.35 0.261c0.661 0.909 1.147 1.921 1.434 2.98c0.217 -0.189 0.426 -0.392 0.624 -0.602c0.584 -0.623 1.085 -1.324 1.483 -2.088c0.383 -0.739 0.664 -1.526 0.838 -2.333c-1.14 0.597 -2.375 0.939 -3.615 1.003L9.769 14.006z"/><path fill="none" stroke="#000000" stroke-linecap="round" stroke-linejoin="round" stroke-miterlimit="10" stroke-width="0.5955277777777779" d="M9.725 13.244c0.081 0.272 0.077 0.517 0.042 0.771c2.163 -0.11 4.276 -1.07 5.881 -2.671c2.05 -2.054 3.021 -4.908 2.577 -7.588c-2.681 -0.439 -5.533 0.531 -7.586 2.583c-1.598 1.605 -2.556 3.717 -2.665 5.877c0.287 -0.058 0.581 -0.03 0.846 0.074"/><path fill="none" stroke="#000000" stroke-linecap="round" stroke-linejoin="round" stroke-miterlimit="10" stroke-width="0.5955277777777779" d="M11.328 10.449l0 0c-0.738 0.373 -1.428 0.845 -2.047 1.4c-0.637 0.579 -1.191 1.24 -1.646 1.961c-0.154 0.245 -0.296 0.497 -0.426 0.755"/></g></svg>