<svg width="32px" height="32px" viewBox="0 0 32 32" fill="none" xmlns="http://www.w3.org/2000/svg"><path d="M6 15.333H26V22.667C26 23.403 25.403 24 24.667 24H7.333C6.597 24 6 23.403 6 22.667V15.333Z" fill="#2F88FF" stroke="black" stroke-width="2.6666666666666665" stroke-linejoin="round"/><path d="M6 5.333C6 4.597 6.597 4 7.333 4H24.667C25.403 4 26 4.597 26 5.333V15.333H6V5.333Z" stroke="black" stroke-width="2.6666666666666665" stroke-linejoin="round"/><path d="M10 28C8.895 28 8 27.105 8 26V24H12V26C12 27.105 11.105 28 10 28Z" fill="#2F88FF" stroke="black" stroke-width="2.6666666666666665" stroke-linecap="round" stroke-linejoin="round"/><path d="M22 28C20.895 28 20 27.105 20 26V24H24V26C24 27.105 23.105 28 22 28Z" fill="#2F88FF" stroke="black" stroke-width="2.6666666666666665" stroke-linecap="round" stroke-linejoin="round"/><path d="M4 8V10.667" stroke="black" stroke-width="2.6666666666666665" stroke-linecap="round"/><path d="M28 8V10.667" stroke="black" stroke-width="2.6666666666666665" stroke-linecap="round"/><path cx="15" cy="30" r="2" fill="white" d="M11.333 20A1.333 1.333 0 0 1 10 21.333A1.333 1.333 0 0 1 8.667 20A1.333 1.333 0 0 1 11.333 20z"/><path cx="33" cy="30" r="2" fill="white" d="M23.333 20A1.333 1.333 0 0 1 22 21.333A1.333 1.333 0 0 1 20.667 20A1.333 1.333 0 0 1 23.333 20z"/><path d="M20.667 4L14.667 10.667" stroke="black" stroke-width="2.6666666666666665" stroke-linecap="round"/><path d="M25.333 4.667L22 8.667" stroke="black" stroke-width="2.6666666666666665" stroke-linecap="round"/></svg>